<?xml version="1.0" encoding="UTF-8" standalone="no"?>
<!-- Generator: Adobe Illustrator 19.0.0, SVG Export Plug-In . SVG Version: 6.00 Build 0)  -->

<svg
   xmlns:dc="http://purl.org/dc/elements/1.1/"
   xmlns:cc="http://creativecommons.org/ns#"
   xmlns:rdf="http://www.w3.org/1999/02/22-rdf-syntax-ns#"
   xmlns:svg="http://www.w3.org/2000/svg"
   xmlns="http://www.w3.org/2000/svg"
   xmlns:sodipodi="http://sodipodi.sourceforge.net/DTD/sodipodi-0.dtd"
   xmlns:inkscape="http://www.inkscape.org/namespaces/inkscape"
   version="1.1"
   id="Capa_1"
   x="0px"
   y="0px"
   viewBox="0 0 44.75 43.500001"
   xml:space="preserve"
   width="64"
   height="62.212292"
   sodipodi:docname="brickwall64.svg"
   inkscape:version="0.92.3 (2405546, 2018-03-11)"><metadata
   id="metadata67"><rdf:RDF><cc:Work
       rdf:about=""><dc:format>image/svg+xml</dc:format><dc:type
         rdf:resource="http://purl.org/dc/dcmitype/StillImage" /><dc:title></dc:title></cc:Work></rdf:RDF></metadata><defs
   id="defs65" /><sodipodi:namedview
   pagecolor="#ffffff"
   bordercolor="#666666"
   borderopacity="1"
   objecttolerance="10"
   gridtolerance="10"
   guidetolerance="10"
   inkscape:pageopacity="0"
   inkscape:pageshadow="2"
   inkscape:window-width="1083"
   inkscape:window-height="679"
   id="namedview63"
   showgrid="false"
   inkscape:zoom="0.4609375"
   inkscape:cx="253.83051"
   inkscape:cy="75.28984"
   inkscape:window-x="321"
   inkscape:window-y="132"
   inkscape:window-maximized="0"
   inkscape:current-layer="Capa_1" />
<g
   id="g30"
   transform="matrix(0.125,0,0,0.125,0,-0.625)">
	<g
   id="g28">
		<g
   id="g26">
			<rect
   x="54"
   y="97"
   width="142"
   height="72"
   id="rect2"
   style="fill:#d80027" />
			<path
   d="M 115,76 V 5 H 0 v 72 h 114.9 c -0.1,0 0.1,-0.7 0.1,-1 z"
   id="path4"
   inkscape:connector-curvature="0"
   style="fill:#d80027" />
			<path
   d="m 115,189.9 c 0,-0.3 -0.1,-0.9 -0.1,-0.9 H 0 v 72 h 115 z"
   id="path6"
   inkscape:connector-curvature="0"
   style="fill:#d80027" />
			<path
   d="m 277,261 v -71.1 c 0.1,-0.3 0.2,-0.6 0.4,-0.9 H 134.8 c 0.1,0.3 0.2,0.6 0.2,0.9 V 261 Z"
   id="path8"
   inkscape:connector-curvature="0"
   style="fill:#d80027" />
			<path
   d="M 277,76 V 5 H 135 v 71 c 0,0.3 -0.1,0.7 -0.2,1 H 277.4 C 277.2,76.7 277,76.4 277,76 Z"
   id="path10"
   inkscape:connector-curvature="0"
   style="fill:#d80027" />
			<rect
   y="97"
   width="34"
   height="72"
   id="rect12"
   x="0"
   style="fill:#d80027" />
			<rect
   x="216"
   y="97"
   width="142"
   height="72"
   id="rect14"
   style="fill:#d80027" />
			<path
   d="M 297,189.9 V 261 h 61 v -72 h -60.7 c -0.1,0.3 -0.2,0.6 -0.3,0.9 z"
   id="path16"
   inkscape:connector-curvature="0"
   style="fill:#d80027" />
			<rect
   y="281"
   width="34"
   height="72"
   id="rect18"
   x="0"
   style="fill:#d80027" />
			<path
   d="m 297,5 v 71 c 0.1,0.3 0.2,0.7 0.3,1 H 358 V 5 Z"
   id="path20"
   inkscape:connector-curvature="0"
   style="fill:#d80027" />
			<rect
   x="54"
   y="281"
   width="142"
   height="72"
   id="rect22"
   style="fill:#d80027" />
			<rect
   x="216"
   y="281"
   width="142"
   height="72"
   id="rect24"
   style="fill:#d80027" />
		</g>
	</g>
</g>
<g
   id="g32"
   transform="translate(0,-309.5)">
</g>
<g
   id="g34"
   transform="translate(0,-309.5)">
</g>
<g
   id="g36"
   transform="translate(0,-309.5)">
</g>
<g
   id="g38"
   transform="translate(0,-309.5)">
</g>
<g
   id="g40"
   transform="translate(0,-309.5)">
</g>
<g
   id="g42"
   transform="translate(0,-309.5)">
</g>
<g
   id="g44"
   transform="translate(0,-309.5)">
</g>
<g
   id="g46"
   transform="translate(0,-309.5)">
</g>
<g
   id="g48"
   transform="translate(0,-309.5)">
</g>
<g
   id="g50"
   transform="translate(0,-309.5)">
</g>
<g
   id="g52"
   transform="translate(0,-309.5)">
</g>
<g
   id="g54"
   transform="translate(0,-309.5)">
</g>
<g
   id="g56"
   transform="translate(0,-309.5)">
</g>
<g
   id="g58"
   transform="translate(0,-309.5)">
</g>
<g
   id="g60"
   transform="translate(0,-309.5)">
</g>
</svg>