<?xml version="1.0" encoding="UTF-8" standalone="no"?>
<!-- Generator: Adobe Illustrator 19.0.0, SVG Export Plug-In . SVG Version: 6.00 Build 0)  -->

<svg
   xmlns:dc="http://purl.org/dc/elements/1.1/"
   xmlns:cc="http://creativecommons.org/ns#"
   xmlns:rdf="http://www.w3.org/1999/02/22-rdf-syntax-ns#"
   xmlns:svg="http://www.w3.org/2000/svg"
   xmlns="http://www.w3.org/2000/svg"
   xmlns:sodipodi="http://sodipodi.sourceforge.net/DTD/sodipodi-0.dtd"
   xmlns:inkscape="http://www.inkscape.org/namespaces/inkscape"
   version="1.1"
   id="Layer_1"
   x="0px"
   y="0px"
   viewBox="0 0 118.92479 73.080729"
   xml:space="preserve"
   sodipodi:docname="cloudss1.svg"
   width="118.9248"
   height="73.080727"
   inkscape:version="0.92.2 (5c3e80d, 2017-08-06)"><metadata
     id="metadata39"><rdf:RDF><cc:Work
         rdf:about=""><dc:format>image/svg+xml</dc:format><dc:type
           rdf:resource="http://purl.org/dc/dcmitype/StillImage" /><dc:title /></cc:Work></rdf:RDF></metadata><defs
     id="defs37" /><sodipodi:namedview
     pagecolor="#ffffff"
     bordercolor="#666666"
     inkscape:document-rotation="0"
     borderopacity="1"
     objecttolerance="10"
     gridtolerance="10"
     guidetolerance="10"
     inkscape:pageopacity="0"
     inkscape:pageshadow="2"
     inkscape:window-width="1486"
     inkscape:window-height="756"
     id="namedview35"
     showgrid="false"
     inkscape:zoom="1.5898438"
     inkscape:cx="-32.990506"
     inkscape:cy="-13.779055"
     inkscape:window-x="281"
     inkscape:window-y="96"
     inkscape:window-maximized="0"
     inkscape:current-layer="Layer_1" /><path
     style="fill:#56aaff;stroke:#000000;stroke-width:0.95999998;stroke-miterlimit:4;stroke-dasharray:none;stroke-opacity:0;fill-opacity:1"
     d="m 99.40961,72.600725 c 10.51292,0 19.03519,-8.52249 19.03519,-19.035413 0,-9.030758 -6.29107,-16.587417 -14.72832,-18.539827 C 103.54391,15.917491 88.0032,0.47999999 68.85443,0.47999999 c -13.14663,0 -24.59175,7.27718401 -30.53215,18.02211901 -1.80749,-0.782208 -3.799758,-1.217664 -5.894325,-1.217664 -7.5456,0 -13.773081,5.626598 -14.726477,12.912076 -9.818496,1.94688 -17.22147801,10.605773 -17.22147801,20.995892 0,11.823662 9.58487001,21.408302 21.40807701,21.408302 3.293337,0 75.265233,0 77.521533,0 z"
     id="path2"
     inkscape:connector-curvature="0" /><g
     id="g4"
     transform="matrix(0.48,0,0,0.48,-63.4176,-86.339635)" /><g
     id="g6"
     transform="matrix(0.48,0,0,0.48,-63.4176,-86.339635)" /><g
     id="g8"
     transform="matrix(0.48,0,0,0.48,-63.4176,-86.339635)" /><g
     id="g10"
     transform="matrix(0.48,0,0,0.48,-63.4176,-86.339635)" /><g
     id="g12"
     transform="matrix(0.48,0,0,0.48,-63.4176,-86.339635)" /><g
     id="g14"
     transform="matrix(0.48,0,0,0.48,-63.4176,-86.339635)" /><g
     id="g16"
     transform="matrix(0.48,0,0,0.48,-63.4176,-86.339635)" /><g
     id="g18"
     transform="matrix(0.48,0,0,0.48,-63.4176,-86.339635)" /><g
     id="g20"
     transform="matrix(0.48,0,0,0.48,-63.4176,-86.339635)" /><g
     id="g22"
     transform="matrix(0.48,0,0,0.48,-63.4176,-86.339635)" /><g
     id="g24"
     transform="matrix(0.48,0,0,0.48,-63.4176,-86.339635)" /><g
     id="g26"
     transform="matrix(0.48,0,0,0.48,-63.4176,-86.339635)" /><g
     id="g28"
     transform="matrix(0.48,0,0,0.48,-63.4176,-86.339635)" /><g
     id="g30"
     transform="matrix(0.48,0,0,0.48,-63.4176,-86.339635)" /><g
     id="g32"
     transform="matrix(0.48,0,0,0.48,-63.4176,-86.339635)" /></svg>