<?xml version="1.0" encoding="UTF-8" standalone="no"?>
<svg
   xmlns:dc="http://purl.org/dc/elements/1.1/"
   xmlns:cc="http://creativecommons.org/ns#"
   xmlns:rdf="http://www.w3.org/1999/02/22-rdf-syntax-ns#"
   xmlns:svg="http://www.w3.org/2000/svg"
   xmlns="http://www.w3.org/2000/svg"
   xmlns:sodipodi="http://sodipodi.sourceforge.net/DTD/sodipodi-0.dtd"
   xmlns:inkscape="http://www.inkscape.org/namespaces/inkscape"
   width="48pt"
   height="103pt"
   viewBox="0 0 48 103"
   version="1.1"
   id="svg101"
   sodipodi:docname="firewall2.svg"
   inkscape:version="0.92pre3 r">
  <metadata
     id="metadata105">
    <rdf:RDF>
      <cc:Work
         rdf:about="">
        <dc:format>image/svg+xml</dc:format>
        <dc:type
           rdf:resource="http://purl.org/dc/dcmitype/StillImage" />
        <dc:title></dc:title>
      </cc:Work>
    </rdf:RDF>
  </metadata>
  <sodipodi:namedview
     pagecolor="#ffffff"
     bordercolor="#666666"
     borderopacity="1"
     objecttolerance="10"
     gridtolerance="10"
     guidetolerance="10"
     inkscape:pageopacity="0"
     inkscape:pageshadow="2"
     inkscape:window-width="1037"
     inkscape:window-height="480"
     id="namedview103"
     showgrid="false"
     inkscape:zoom="1.7184466"
     inkscape:cx="35.428701"
     inkscape:cy="68.666667"
     inkscape:window-x="802"
     inkscape:window-y="222"
     inkscape:window-maximized="0"
     inkscape:current-layer="surface1" />
  <defs
     id="defs26">
    <clipPath
       id="clip1">
      <path
         d="M 0 0.0625 L 47.367188 0.0625 L 47.367188 27 L 0 27 Z M 0 0.0625 "
         id="path2" />
    </clipPath>
    <clipPath
       id="clip2">
      <path
         d="M 19 0.0625 L 47.367188 0.0625 L 47.367188 103 L 19 103 Z M 19 0.0625 "
         id="path5" />
    </clipPath>
    <clipPath
       id="clip3">
      <path
         d="M 19 60 L 47.367188 60 L 47.367188 96 L 19 96 Z M 19 60 "
         id="path8" />
    </clipPath>
    <clipPath
       id="clip4">
      <path
         d="M 19 47 L 47.367188 47 L 47.367188 82 L 19 82 Z M 19 47 "
         id="path11" />
    </clipPath>
    <clipPath
       id="clip5">
      <path
         d="M 19 34 L 47.367188 34 L 47.367188 68 L 19 68 Z M 19 34 "
         id="path14" />
    </clipPath>
    <clipPath
       id="clip6">
      <path
         d="M 19 20 L 47.367188 20 L 47.367188 54 L 19 54 Z M 19 20 "
         id="path17" />
    </clipPath>
    <clipPath
       id="clip7">
      <path
         d="M 19 7 L 47.367188 7 L 47.367188 41 L 19 41 Z M 19 7 "
         id="path20" />
    </clipPath>
    <clipPath
       id="clip8">
      <path
         d="M 19 0.0625 L 47.367188 0.0625 L 47.367188 27 L 19 27 Z M 19 0.0625 "
         id="path23" />
    </clipPath>
  </defs>
  <g
     id="surface1"
     style="fill:#a52a2a">
    <path
       style="fill-rule:nonzero;fill:#ff0018;fill-opacity:1;stroke-width:4;stroke-linecap:butt;stroke-linejoin:miter;stroke:rgb(100%, 100%, 100%);stroke-opacity:1;stroke-miterlimit:4"
       d="M 5.751953 5.638107 L 85.017578 5.638107 L 85.017578 270.471238 L 5.751953 270.471238 Z M 5.751953 5.638107 "
       transform="matrix(0.315789,0,0,-0.314024,0,104.004878)"
       id="path28" />
    <path
       style="stroke:none;fill-rule:nonzero;fill:#ff0018;fill-opacity:1"
       d="M 26.847656 19.070312 L 1.816406 19.070312 L 24.234375 1.433594 L 46.074219 1.433594 L 26.847656 19.070312 "
       id="path30" />
    <g
       clip-path="url(#clip1)"
       clip-rule="nonzero"
       id="g34"
       style="fill:#ff0018;fill-opacity:1">
      <path
         style="fill:#ff0018;stroke-width:4;stroke-linecap:butt;stroke-linejoin:miter;stroke:rgb(100%, 100%, 100%);stroke-opacity:1;stroke-miterlimit:4;fill-opacity:1"
         d="M 85.017578 270.471238 L 5.751953 270.471238 L 76.742187 326.634769 L 145.901693 326.634769 Z M 85.017578 270.471238 "
         transform="matrix(0.315789,0,0,-0.314024,0,104.004878)"
         id="path32" />
    </g>
    <path
       style="stroke:none;fill-rule:nonzero;fill:#ff0018;fill-opacity:1"
       d="M 46.074219 1.433594 L 46.074219 80.792969 L 26.847656 102.351562 L 26.847656 19.070312 L 46.074219 1.433594 "
       id="path36" />
    <g
       clip-path="url(#clip2)"
       clip-rule="nonzero"
       id="g40"
       style="fill:#ff0018;fill-opacity:1">
      <path
         style="fill:#ff0018;stroke-width:4;stroke-linecap:butt;stroke-linejoin:miter;stroke:rgb(100%, 100%, 100%);stroke-opacity:1;stroke-miterlimit:4;fill-opacity:1"
         d="M 145.901693 326.634769 L 145.901693 73.917536 L 85.017578 5.264927 L 85.017578 270.471238 Z M 145.901693 326.634769 "
         transform="matrix(0.315789,0,0,-0.314024,0,104.004878)"
         id="path38" />
    </g>
    <path
       style="fill:#ff0018;stroke-width:4;stroke-linecap:butt;stroke-linejoin:miter;stroke:rgb(100%, 100%, 100%);stroke-opacity:1;stroke-miterlimit:4;fill-opacity:1"
       d="M 127.173828 267.348968 L 127.173828 309.854126 "
       transform="matrix(0.315789,0,0,-0.314024,0,104.004878)"
       id="path42" />
    <path
       style="fill:#ff0018;stroke-width:4;stroke-linecap:butt;stroke-linejoin:miter;stroke:rgb(100%, 100%, 100%);stroke-opacity:1;stroke-miterlimit:4;fill-opacity:1"
       d="M 127.173828 181.306189 L 127.173828 223.798908 "
       transform="matrix(0.315789,0,0,-0.314024,0,104.004878)"
       id="path44" />
    <path
       style="fill:#ff0018;stroke-width:4;stroke-linecap:butt;stroke-linejoin:miter;stroke:rgb(100%, 100%, 100%);stroke-opacity:1;stroke-miterlimit:4;fill-opacity:1"
       d="M 127.173828 95.26341 L 127.173828 137.756129 "
       transform="matrix(0.315789,0,0,-0.314024,0,104.004878)"
       id="path46" />
    <path
       style="stroke:none;fill-rule:nonzero;fill:#ff0018;fill-opacity:1"
       d="M 46.074219 67.5625 L 26.847656 88.472656 "
       id="path48" />
    <g
       clip-path="url(#clip3)"
       clip-rule="nonzero"
       id="g52"
       style="fill:#ff0018;fill-opacity:1">
      <path
         style="fill:#ff0018;stroke-width:4;stroke-linecap:butt;stroke-linejoin:miter;stroke:rgb(100%, 100%, 100%);stroke-opacity:1;stroke-miterlimit:4;fill-opacity:1"
         d="M 145.901693 116.049515 L 85.017578 49.461833 "
         transform="matrix(0.315789,0,0,-0.314024,0,104.004878)"
         id="path50" />
    </g>
    <path
       style="stroke:none;fill-rule:nonzero;fill:#ff0018;fill-opacity:1"
       d="M 46.074219 54.339844 L 26.847656 74.59375 "
       id="path54" />
    <g
       clip-path="url(#clip4)"
       clip-rule="nonzero"
       id="g58"
       style="fill:#ff0018;fill-opacity:1">
      <path
         style="fill:#ff0018;stroke-width:4;stroke-linecap:butt;stroke-linejoin:miter;stroke:rgb(100%, 100%, 100%);stroke-opacity:1;stroke-miterlimit:4;fill-opacity:1"
         d="M 145.901693 158.156614 L 85.017578 93.658738 "
         transform="matrix(0.315789,0,0,-0.314024,0,104.004878)"
         id="path56" />
    </g>
    <path
       style="stroke:none;fill-rule:nonzero;fill:#ff0018;fill-opacity:1"
       d="M 46.074219 41.117188 L 26.847656 60.707031 "
       id="path60" />
    <g
       clip-path="url(#clip5)"
       clip-rule="nonzero"
       id="g64"
       style="fill:#ff0018;fill-opacity:1">
      <path
         style="fill:#ff0018;stroke-width:4;stroke-linecap:butt;stroke-linejoin:miter;stroke:rgb(100%, 100%, 100%);stroke-opacity:1;stroke-miterlimit:4;fill-opacity:1"
         d="M 145.901693 200.263714 L 85.017578 137.880522 "
         transform="matrix(0.315789,0,0,-0.314024,0,104.004878)"
         id="path62" />
    </g>
    <path
       style="stroke:none;fill-rule:nonzero;fill:#ff0018;fill-opacity:1"
       d="M 46.074219 27.886719 L 26.847656 46.828125 "
       id="path66" />
    <g
       clip-path="url(#clip6)"
       clip-rule="nonzero"
       id="g70"
       style="fill:#ff0018;fill-opacity:1">
      <path
         style="fill:#ff0018;stroke-width:4;stroke-linecap:butt;stroke-linejoin:miter;stroke:rgb(100%, 100%, 100%);stroke-opacity:1;stroke-miterlimit:4;fill-opacity:1"
         d="M 145.901693 242.395692 L 85.017578 182.077427 "
         transform="matrix(0.315789,0,0,-0.314024,0,104.004878)"
         id="path68" />
    </g>
    <path
       style="stroke:none;fill-rule:nonzero;fill:#ff0018;fill-opacity:1"
       d="M 46.074219 14.664062 L 26.847656 32.953125 "
       id="path72" />
    <g
       clip-path="url(#clip7)"
       clip-rule="nonzero"
       id="g76"
       style="fill:#ff0018;fill-opacity:1">
      <path
         style="fill:#ff0018;stroke-width:4;stroke-linecap:butt;stroke-linejoin:miter;stroke:rgb(100%, 100%, 100%);stroke-opacity:1;stroke-miterlimit:4;fill-opacity:1"
         d="M 145.901693 284.502791 L 85.017578 226.261893 "
         transform="matrix(0.315789,0,0,-0.314024,0,104.004878)"
         id="path74" />
    </g>
    <path
       style="stroke:none;fill-rule:nonzero;fill:#ff0018;fill-opacity:1"
       d="M 26.847656 19.070312 L 46.074219 1.433594 "
       id="path78" />
    <g
       clip-path="url(#clip8)"
       clip-rule="nonzero"
       id="g82"
       style="fill:#ff0018;fill-opacity:1">
      <path
         style="fill:#ff0018;stroke-width:4;stroke-linecap:butt;stroke-linejoin:miter;stroke:rgb(100%, 100%, 100%);stroke-opacity:1;stroke-miterlimit:4;fill-opacity:1"
         d="M 85.017578 270.471238 L 145.901693 326.634769 "
         transform="matrix(0.315789,0,0,-0.314024,0,104.004878)"
         id="path80" />
    </g>
    <path
       style="fill:#ff0018;stroke-width:4;stroke-linecap:butt;stroke-linejoin:miter;stroke:rgb(100%, 100%, 100%);stroke-opacity:1;stroke-miterlimit:4;fill-opacity:1"
       d="M 85.017578 49.772816 L 5.751953 49.772816 "
       transform="matrix(0.315789,0,0,-0.314024,0,104.004878)"
       id="path84" />
    <path
       style="fill:#ff0018;stroke-width:4;stroke-linecap:butt;stroke-linejoin:miter;stroke:rgb(100%, 100%, 100%);stroke-opacity:1;stroke-miterlimit:4;fill-opacity:1"
       d="M 85.017578 93.919964 L 5.751953 93.919964 "
       transform="matrix(0.315789,0,0,-0.314024,0,104.004878)"
       id="path86" />
    <path
       style="fill:#ff0018;stroke-width:4;stroke-linecap:butt;stroke-linejoin:miter;stroke:rgb(100%, 100%, 100%);stroke-opacity:1;stroke-miterlimit:4;fill-opacity:1"
       d="M 85.017578 138.054672 L 5.751953 138.054672 "
       transform="matrix(0.315789,0,0,-0.314024,0,104.004878)"
       id="path88" />
    <path
       style="fill:#ff0018;stroke-width:4;stroke-linecap:butt;stroke-linejoin:miter;stroke:rgb(100%, 100%, 100%);stroke-opacity:1;stroke-miterlimit:4;fill-opacity:1"
       d="M 85.017578 182.189381 L 5.751953 182.189381 "
       transform="matrix(0.315789,0,0,-0.314024,0,104.004878)"
       id="path90" />
    <path
       style="fill:#ff0018;stroke-width:4;stroke-linecap:butt;stroke-linejoin:miter;stroke:rgb(100%, 100%, 100%);stroke-opacity:1;stroke-miterlimit:4;fill-opacity:1"
       d="M 85.017578 226.336529 L 5.751953 226.336529 "
       transform="matrix(0.315789,0,0,-0.314024,0,104.004878)"
       id="path92" />
    <path
       style="fill:#ff0018;stroke-width:4;stroke-linecap:butt;stroke-linejoin:miter;stroke:rgb(100%, 100%, 100%);stroke-opacity:1;stroke-miterlimit:4;fill-opacity:1"
       d="M 106.553385 29.633556 L 106.553385 72.350182 "
       transform="matrix(0.315789,0,0,-0.314024,0,104.004878)"
       id="path94" />
    <path
       style="fill:#ff0018;stroke-width:4;stroke-linecap:butt;stroke-linejoin:miter;stroke:rgb(100%, 100%, 100%);stroke-opacity:1;stroke-miterlimit:4;fill-opacity:1"
       d="M 106.553385 116.920267 L 106.553385 159.636893 "
       transform="matrix(0.315789,0,0,-0.314024,0,104.004878)"
       id="path96" />
    <path
       style="fill:#ff0018;stroke-width:4;stroke-linecap:butt;stroke-linejoin:miter;stroke:rgb(100%, 100%, 100%);stroke-opacity:1;stroke-miterlimit:4;fill-opacity:1"
       d="M 106.553385 203.385983 L 106.553385 246.102609 "
       transform="matrix(0.315789,0,0,-0.314024,0,104.004878)"
       id="path98" />
  </g>
</svg>
