<?xml version="1.0" encoding="UTF-8" standalone="no"?>
<!-- Generator: Adobe Illustrator 19.0.0, SVG Export Plug-In . SVG Version: 6.00 Build 0)  -->

<svg
   xmlns:dc="http://purl.org/dc/elements/1.1/"
   xmlns:cc="http://creativecommons.org/ns#"
   xmlns:rdf="http://www.w3.org/1999/02/22-rdf-syntax-ns#"
   xmlns:svg="http://www.w3.org/2000/svg"
   xmlns="http://www.w3.org/2000/svg"
   xmlns:sodipodi="http://sodipodi.sourceforge.net/DTD/sodipodi-0.dtd"
   xmlns:inkscape="http://www.inkscape.org/namespaces/inkscape"
   version="1.1"
   id="Layer_1"
   x="0px"
   y="0px"
   viewBox="0 0 64.000999 59.587067"
   xml:space="preserve"
   sodipodi:docname="analytics3.svg"
   width="64.000999"
   height="59.587067"
   inkscape:version="0.92.3 (2405546, 2018-03-11)"><metadata
   id="metadata75"><rdf:RDF><cc:Work
       rdf:about=""><dc:format>image/svg+xml</dc:format><dc:type
         rdf:resource="http://purl.org/dc/dcmitype/StillImage" /><dc:title></dc:title></cc:Work></rdf:RDF></metadata><defs
   id="defs73" /><sodipodi:namedview
   pagecolor="#ffffff"
   bordercolor="#666666"
   borderopacity="1"
   objecttolerance="10"
   gridtolerance="10"
   guidetolerance="10"
   inkscape:pageopacity="0"
   inkscape:pageshadow="2"
   inkscape:window-width="1464"
   inkscape:window-height="727"
   id="namedview71"
   showgrid="false"
   inkscape:zoom="5.2149125"
   inkscape:cx="34.36331"
   inkscape:cy="37.282862"
   inkscape:window-x="817"
   inkscape:window-y="220"
   inkscape:window-maximized="0"
   inkscape:current-layer="g38" />
<g
   id="g38"
   transform="matrix(0.12500171,0,0,0.12500171,0,-2.2069052)">
	<path
   style="fill:#000000"
   d="M 361.931,494.345 H 150.069 c 0,-19.5 15.81,-35.31 35.31,-35.31 H 326.62 c 19.501,-0.001 35.311,15.81 35.311,35.31"
   id="path2"
   inkscape:connector-curvature="0" />
	<polygon
   style="fill:#b0b6bb"
   points="300.138,388.414 317.793,459.034 194.207,459.034 211.862,388.414 "
   id="polygon4" />
	<path
   style="fill:#e2dbe3"
   d="M 512,317.793 H 0 V 48.552 C 0,31.488 13.833,17.655 30.897,17.655 h 450.207 c 17.064,0 30.897,13.833 30.897,30.897 v 269.241 z"
   id="path6"
   inkscape:connector-curvature="0" />
	<path
   style="fill:#1a1a1a"
   d="M 481.103,388.414 H 30.897 C 13.833,388.414 0,374.581 0,357.517 v -39.724 h 512 v 39.724 c 0,17.064 -13.833,30.897 -30.897,30.897"
   id="path8"
   inkscape:connector-curvature="0" />
	<g
   id="g20"
   style="fill:#2b0011">
		<path
   style="fill:#2b0011"
   d="m 158.892,273.655 c -2.136,0 -4.281,-0.768 -5.976,-2.331 -3.584,-3.302 -3.814,-8.889 -0.512,-12.473 l 102.4,-111.228 c 3.302,-3.584 8.889,-3.822 12.473,-0.521 3.584,3.302 3.814,8.889 0.512,12.473 l -102.4,111.228 c -1.739,1.899 -4.113,2.852 -6.497,2.852"
   id="path10"
   inkscape:connector-curvature="0" />
		<path
   style="fill:#2b0011"
   d="m 340.746,241.875 c -2.26,0 -4.52,-0.865 -6.241,-2.587 L 255.057,159.84 c -3.452,-3.452 -3.452,-9.031 0,-12.482 3.452,-3.452 9.031,-3.452 12.482,0 l 79.448,79.448 c 3.452,3.452 3.452,9.031 0,12.482 -1.722,1.722 -3.981,2.587 -6.241,2.587"
   id="path12"
   inkscape:connector-curvature="0" />
		<path
   style="fill:#2b0011"
   d="m 340.746,241.875 c -2.26,0 -4.52,-0.865 -6.241,-2.587 -3.452,-3.452 -3.452,-9.031 0,-12.482 L 461.622,99.689 c 3.443,-3.452 9.031,-3.452 12.482,0 3.452,3.452 3.452,9.039 0,12.482 L 346.987,239.288 c -1.722,1.722 -3.981,2.587 -6.241,2.587"
   id="path14"
   inkscape:connector-curvature="0" />
		<path
   style="fill:#2b0011"
   d="m 467.862,176.552 c -4.873,0 -8.828,-3.955 -8.828,-8.828 v -61.793 c 0,-4.873 3.955,-8.828 8.828,-8.828 4.873,0 8.828,3.955 8.828,8.828 v 61.793 c 0,4.873 -3.955,8.828 -8.828,8.828"
   id="path16"
   inkscape:connector-curvature="0" />
		<path
   style="fill:#2b0011"
   d="m 467.862,114.759 h -61.793 c -4.873,0 -8.828,-3.955 -8.828,-8.828 0,-4.873 3.955,-8.828 8.828,-8.828 h 61.793 c 4.873,0 8.828,3.955 8.828,8.828 0,4.873 -3.955,8.828 -8.828,8.828"
   id="path18"
   inkscape:connector-curvature="0" />
	</g>
	<g
   id="g36"
   style="fill:#d40000">
		<path
   style="fill:#d40000"
   d="m 44.138,282.483 c -4.873,0 -8.828,-3.955 -8.828,-8.828 V 79.448 c 0,-4.873 3.955,-8.828 8.828,-8.828 4.873,0 8.828,3.955 8.828,8.828 v 194.207 c 0,4.873 -3.955,8.828 -8.828,8.828"
   id="path22"
   inkscape:connector-curvature="0" />
		<path
   style="fill:#d40000"
   d="M 97.103,97.103 H 79.448 c -4.873,0 -8.828,-3.955 -8.828,-8.828 0,-4.873 3.955,-8.828 8.828,-8.828 h 17.655 c 4.873,0 8.828,3.955 8.828,8.828 0,4.874 -3.955,8.828 -8.828,8.828"
   id="path24"
   inkscape:connector-curvature="0" />
		<path
   style="fill:#d40000"
   d="m 114.759,132.414 h -35.31 c -4.873,0 -8.828,-3.955 -8.828,-8.828 0,-4.873 3.955,-8.828 8.828,-8.828 h 35.31 c 4.873,0 8.828,3.955 8.828,8.828 0,4.873 -3.956,8.828 -8.828,8.828"
   id="path26"
   inkscape:connector-curvature="0" />
		<path
   style="fill:#d40000"
   d="M 97.103,167.724 H 79.448 c -4.873,0 -8.828,-3.955 -8.828,-8.828 0,-4.873 3.955,-8.828 8.828,-8.828 h 17.655 c 4.873,0 8.828,3.955 8.828,8.828 0,4.873 -3.955,8.828 -8.828,8.828"
   id="path28"
   inkscape:connector-curvature="0" />
		<path
   style="fill:#d40000"
   d="m 114.759,203.034 h -35.31 c -4.873,0 -8.828,-3.955 -8.828,-8.828 0,-4.873 3.955,-8.828 8.828,-8.828 h 35.31 c 4.873,0 8.828,3.955 8.828,8.828 0,4.873 -3.956,8.828 -8.828,8.828"
   id="path30"
   inkscape:connector-curvature="0" />
		<path
   style="fill:#d40000"
   d="M 97.103,238.345 H 79.448 c -4.873,0 -8.828,-3.955 -8.828,-8.828 0,-4.873 3.955,-8.828 8.828,-8.828 h 17.655 c 4.873,0 8.828,3.955 8.828,8.828 0,4.873 -3.955,8.828 -8.828,8.828"
   id="path32"
   inkscape:connector-curvature="0" />
		<path
   style="fill:#d40000"
   d="m 114.759,273.655 h -35.31 c -4.873,0 -8.828,-3.955 -8.828,-8.828 0,-4.873 3.954,-8.827 8.827,-8.827 h 35.31 c 4.873,0 8.828,3.955 8.828,8.828 0,4.873 -3.955,8.827 -8.827,8.827"
   id="path34"
   inkscape:connector-curvature="0" />
	</g>
</g>
<g
   id="g40"
   transform="translate(0,-434.75794)">
</g>
<g
   id="g42"
   transform="translate(0,-434.75794)">
</g>
<g
   id="g44"
   transform="translate(0,-434.75794)">
</g>
<g
   id="g46"
   transform="translate(0,-434.75794)">
</g>
<g
   id="g48"
   transform="translate(0,-434.75794)">
</g>
<g
   id="g50"
   transform="translate(0,-434.75794)">
</g>
<g
   id="g52"
   transform="translate(0,-434.75794)">
</g>
<g
   id="g54"
   transform="translate(0,-434.75794)">
</g>
<g
   id="g56"
   transform="translate(0,-434.75794)">
</g>
<g
   id="g58"
   transform="translate(0,-434.75794)">
</g>
<g
   id="g60"
   transform="translate(0,-434.75794)">
</g>
<g
   id="g62"
   transform="translate(0,-434.75794)">
</g>
<g
   id="g64"
   transform="translate(0,-434.75794)">
</g>
<g
   id="g66"
   transform="translate(0,-434.75794)">
</g>
<g
   id="g68"
   transform="translate(0,-434.75794)">
</g>
</svg>