<?xml version="1.0" encoding="UTF-8" standalone="no"?>
<svg
   xmlns:dc="http://purl.org/dc/elements/1.1/"
   xmlns:cc="http://creativecommons.org/ns#"
   xmlns:rdf="http://www.w3.org/1999/02/22-rdf-syntax-ns#"
   xmlns:svg="http://www.w3.org/2000/svg"
   xmlns="http://www.w3.org/2000/svg"
   xmlns:sodipodi="http://sodipodi.sourceforge.net/DTD/sodipodi-0.dtd"
   xmlns:inkscape="http://www.inkscape.org/namespaces/inkscape"
   width="48pt"
   height="51.851349pt"
   viewBox="0 0 48.000001 51.851348"
   version="1.1"
   id="svg101"
   sodipodi:docname="mlayer2.svg"
   inkscape:version="0.92.3 (2405546, 2018-03-11)">
  <metadata
     id="metadata105">
    <rdf:RDF>
      <cc:Work
         rdf:about="">
        <dc:format>image/svg+xml</dc:format>
        <dc:type
           rdf:resource="http://purl.org/dc/dcmitype/StillImage" />
        <dc:title></dc:title>
      </cc:Work>
    </rdf:RDF>
  </metadata>
  <sodipodi:namedview
     pagecolor="#ffffff"
     bordercolor="#666666"
     borderopacity="1"
     objecttolerance="10"
     gridtolerance="10"
     guidetolerance="10"
     inkscape:pageopacity="0"
     inkscape:pageshadow="2"
     inkscape:window-width="1381"
     inkscape:window-height="632"
     id="namedview103"
     showgrid="false"
     inkscape:zoom="3.9111844"
     inkscape:cx="20.622561"
     inkscape:cy="49.612347"
     inkscape:window-x="150"
     inkscape:window-y="59"
     inkscape:window-maximized="0"
     inkscape:current-layer="surface1"
     fit-margin-top="0"
     fit-margin-left="0"
     fit-margin-right="0"
     fit-margin-bottom="0" />
  <defs
     id="defs26">
    <clipPath
       id="clip1">
      <path
         d="m 42,17 h 5.691406 V 64 H 42 Z m 0,0"
         id="path2"
         inkscape:connector-curvature="0" />
    </clipPath>
    <clipPath
       id="clip2">
      <path
         d="m 38,13 h 9.691406 V 64 H 38 Z m 0,0"
         id="path5"
         inkscape:connector-curvature="0" />
    </clipPath>
    <clipPath
       id="clip3">
      <path
         d="M 0,0 H 47.691406 V 6 H 0 Z m 0,0"
         id="path8"
         inkscape:connector-curvature="0" />
    </clipPath>
    <clipPath
       id="clip4">
      <path
         d="M 0,0 H 47.691406 V 10 H 0 Z m 0,0"
         id="path11"
         inkscape:connector-curvature="0" />
    </clipPath>
    <clipPath
       id="clip5">
      <path
         d="m 42,0 h 5.691406 V 23 H 42 Z m 0,0"
         id="path14"
         inkscape:connector-curvature="0" />
    </clipPath>
    <clipPath
       id="clip6">
      <path
         d="m 38,0 h 9.691406 V 27 H 38 Z m 0,0"
         id="path17"
         inkscape:connector-curvature="0" />
    </clipPath>
    <clipPath
       id="clip7">
      <path
         d="m 42,17 h 5.691406 v 6 H 42 Z m 0,0"
         id="path20"
         inkscape:connector-curvature="0" />
    </clipPath>
    <clipPath
       id="clip8">
      <path
         d="m 38,13 h 9.691406 V 27 H 38 Z m 0,0"
         id="path23"
         inkscape:connector-curvature="0" />
    </clipPath>
  </defs>
  <g
     id="surface1"
     transform="matrix(0.7540652,0,0,0.81887779,-7.0913048e-4,-0.68404243)">
    <path
       style="fill:#ff5656;fill-opacity:1;fill-rule:nonzero;stroke:#ffffff;stroke-width:0.82138538;stroke-linecap:butt;stroke-linejoin:miter;stroke-miterlimit:4;stroke-opacity:1"
       d="M 1.3292225,63.744656 H 56.413781 V 8.7070221 H 1.3292225 Z m 0,0"
       id="path28"
       inkscape:connector-curvature="0" />
    <g
       clip-path="url(#clip1)"
       id="g32"
       style="clip-rule:nonzero"
       transform="matrix(1.3347526,0,0,1.3347526,-3.1480469e-4,-21.476169)">
      <path
         style="fill:#006b99;fill-opacity:1;fill-rule:nonzero;stroke:none"
         d="M 47.480469,58.6875 V 17.453125 l -5.214844,5.160156 V 63.847656 L 47.480469,58.6875"
         id="path30"
         inkscape:connector-curvature="0" />
    </g>
    <g
       clip-path="url(#clip2)"
       id="g36"
       style="clip-rule:nonzero"
       transform="matrix(1.3347526,0,0,1.3347526,-3.1480469e-4,-21.476169)">
      <path
         style="fill:#ff5656;stroke:#ffffff;stroke-width:4;stroke-linecap:butt;stroke-linejoin:miter;stroke-miterlimit:4;stroke-opacity:1;fill-opacity:1"
         d="M 308.62305,38.33125 V 306.35469 L 274.72656,272.81367 V 4.790234 Z m 0,0"
         transform="matrix(0.153846,0,0,-0.153846,0,64.584615)"
         id="path34"
         inkscape:connector-curvature="0" />
    </g>
    <g
       clip-path="url(#clip3)"
       id="g40"
       style="clip-rule:nonzero;fill:#ff5656;fill-opacity:1"
       transform="matrix(1.3347526,0,0,1.3347526,-3.1480469e-4,0.83401049)">
      <path
         style="fill:#ff5656;fill-opacity:1;fill-rule:nonzero;stroke:none"
         d="M 8.542969,0.738281 0.996094,5.898438 h 41.269531 l 5.214844,-5.160157 h -38.9375"
         id="path38"
         inkscape:connector-curvature="0" />
    </g>
    <g
       clip-path="url(#clip4)"
       id="g44"
       style="clip-rule:nonzero"
       transform="matrix(1.3347526,0,0,1.3347526,-3.1480469e-4,0.83399047)">
      <path
         style="fill:none;stroke:#ffffff;stroke-width:4;stroke-linecap:butt;stroke-linejoin:miter;stroke-miterlimit:4;stroke-opacity:1"
         d="M 55.529297,415.00117 6.474609,381.46016 H 274.72656 l 33.89649,33.54101 z m 0,0"
         transform="matrix(0.153846,0,0,-0.153846,0,64.584615)"
         id="path42"
         inkscape:connector-curvature="0" />
    </g>
    <path
       style="fill:none;stroke:#ffffff;stroke-width:0.82138538;stroke-linecap:butt;stroke-linejoin:miter;stroke-miterlimit:4;stroke-opacity:1"
       d="M 56.413781,8.7070221 H 1.3292225"
       id="path56"
       inkscape:connector-curvature="0" />
    <g
       clip-path="url(#clip7)"
       id="g60"
       style="clip-rule:nonzero"
       transform="matrix(1.3347526,0,0,1.3347526,-3.1480469e-4,-21.476169)">
      <path
         style="fill:#006b99;fill-opacity:1;fill-rule:nonzero;stroke:none"
         d="m 42.265625,22.613281 5.214844,-5.160156"
         id="path58"
         inkscape:connector-curvature="0" />
    </g>
    <g
       clip-path="url(#clip8)"
       id="g64"
       style="clip-rule:nonzero"
       transform="matrix(1.3347526,0,0,1.3347526,-3.1480469e-4,-21.476169)">
      <path
         style="fill:none;stroke:#ffffff;stroke-width:4;stroke-linecap:butt;stroke-linejoin:miter;stroke-miterlimit:4;stroke-opacity:1"
         d="m 274.72656,272.81367 33.89649,33.54102"
         transform="matrix(0.153846,0,0,-0.153846,0,64.584615)"
         id="path62"
         inkscape:connector-curvature="0" />
    </g>
    <path
       style="fill:#ffffff;fill-opacity:1;fill-rule:nonzero;stroke:none;stroke-width:1.33475256"
       d="M 30.062902,28.222509 V 16.314013 h 2.022983 L 29.103549,11.81965 26.12121,16.314013 h 2.022986 v 11.908496 h 1.918706"
       id="path82"
       inkscape:connector-curvature="0" />
    <path
       style="fill:#ffffff;fill-opacity:1;fill-rule:nonzero;stroke:none;stroke-width:1.33475256"
       d="m 23.988734,29.943089 -8.420412,-8.420412 1.428603,-1.428603 -5.286871,-1.068845 1.074058,5.286873 1.423389,-1.428603 8.420412,8.420412 1.360821,-1.360822"
       id="path84"
       inkscape:connector-curvature="0" />
    <path
       style="fill:#ffffff;fill-opacity:1;fill-rule:nonzero;stroke:none;stroke-width:1.33475256"
       d="M 20.907333,35.454157 H 8.9988381 v -2.017771 l -4.4891494,2.982338 4.4891494,2.977124 v -2.01777 H 20.907333 v -1.923921"
       id="path86"
       inkscape:connector-curvature="0" />
    <path
       style="fill:#ffffff;fill-opacity:1;fill-rule:nonzero;stroke:none;stroke-width:1.33475256"
       d="m 22.627913,41.528324 -8.420412,8.420412 -1.423389,-1.423389 -1.074058,5.281658 5.286871,-1.068846 -1.428603,-1.428601 8.420412,-8.420413 -1.360821,-1.360821"
       id="path88"
       inkscape:connector-curvature="0" />
    <path
       style="fill:#ffffff;fill-opacity:1;fill-rule:nonzero;stroke:none;stroke-width:1.33475256"
       d="M 28.144196,44.609726 V 56.518221 H 26.12121 l 2.982339,4.494362 2.982336,-4.494362 H 30.062902 V 44.609726 h -1.918706"
       id="path90"
       inkscape:connector-curvature="0" />
    <path
       style="fill:#ffffff;fill-opacity:1;fill-rule:nonzero;stroke:none;stroke-width:1.33475256"
       d="m 34.218362,42.889145 8.420411,8.420413 -1.428602,1.428601 5.286873,1.068846 -1.07406,-5.281658 -1.428601,1.423389 -8.420413,-8.420412 -1.355608,1.360821"
       id="path92"
       inkscape:connector-curvature="0" />
    <path
       style="fill:#ffffff;fill-opacity:1;fill-rule:nonzero;stroke:none;stroke-width:1.33475256"
       d="m 37.299763,37.378078 h 11.903282 v 2.01777 l 4.494363,-2.977124 -4.494363,-2.982338 v 2.017771 H 37.299763 v 1.923921"
       id="path94"
       inkscape:connector-curvature="0" />
    <path
       style="fill:#ffffff;fill-opacity:1;fill-rule:nonzero;stroke:none;stroke-width:1.33475256"
       d="m 35.57397,31.303911 8.420413,-8.420412 1.428601,1.428603 1.07406,-5.286873 -5.286873,1.068845 1.428602,1.428603 -8.420411,8.420412 1.355608,1.360822"
       id="path96"
       inkscape:connector-curvature="0" />
    <path
       style="fill:#ffffff;fill-opacity:1;fill-rule:nonzero;stroke:none;stroke-width:1.33475256"
       d="m 36.387335,46.398085 c 5.578848,-3.905194 6.934456,-11.595664 3.029263,-17.174512 -3.905194,-5.578848 -11.595664,-6.934457 -17.174513,-3.024048 -5.578848,3.905193 -6.929242,11.595663 -3.024047,17.169297 3.905193,5.57885 11.590448,6.934458 17.169297,3.029263"
       id="path98"
       inkscape:connector-curvature="0" />
  </g>
</svg>
