<?xml version="1.0" encoding="UTF-8" standalone="no"?>
<!-- Generator: Adobe Illustrator 17.1.0, SVG Export Plug-In . SVG Version: 6.00 Build 0)  -->

<svg
   xmlns:dc="http://purl.org/dc/elements/1.1/"
   xmlns:cc="http://creativecommons.org/ns#"
   xmlns:rdf="http://www.w3.org/1999/02/22-rdf-syntax-ns#"
   xmlns:svg="http://www.w3.org/2000/svg"
   xmlns="http://www.w3.org/2000/svg"
   xmlns:sodipodi="http://sodipodi.sourceforge.net/DTD/sodipodi-0.dtd"
   xmlns:inkscape="http://www.inkscape.org/namespaces/inkscape"
   version="1.1"
   id="Capa_1"
   x="0px"
   y="0px"
   viewBox="0 0 72.343004 55.025621"
   xml:space="preserve"
   sodipodi:docname="PC5.svg"
   width="72.343002"
   height="55.02562"
   inkscape:version="0.92.2 (5c3e80d, 2017-08-06)"><metadata
     id="metadata39"><rdf:RDF><cc:Work
         rdf:about=""><dc:format>image/svg+xml</dc:format><dc:type
           rdf:resource="http://purl.org/dc/dcmitype/StillImage" /><dc:title></dc:title></cc:Work></rdf:RDF></metadata><defs
     id="defs37" /><sodipodi:namedview
     pagecolor="#ffffff"
     bordercolor="#666666"
     inkscape:document-rotation="0"
     borderopacity="1"
     objecttolerance="10"
     gridtolerance="10"
     guidetolerance="10"
     inkscape:pageopacity="0"
     inkscape:pageshadow="2"
     inkscape:window-width="1573"
     inkscape:window-height="976"
     id="namedview35"
     showgrid="false"
     fit-margin-top="0"
     fit-margin-left="0"
     fit-margin-right="0"
     fit-margin-bottom="0"
     inkscape:zoom="4.0374932"
     inkscape:cx="4.8297287"
     inkscape:cy="47.611591"
     inkscape:window-x="0"
     inkscape:window-y="24"
     inkscape:window-maximized="0"
     inkscape:current-layer="Capa_1" /><path
     d="m 71.075397,42.20409 h -46.82267 c -0.699085,0 -1.267602,-0.56888 -1.267602,-1.26796 V 11.58524 c 0,-0.69909 0.568873,-1.2676 1.267602,-1.2676 h 46.82267 c 0.699085,0 1.267603,0.56887 1.267603,1.2676 v 29.35089 c 3.56e-4,0.69944 -0.568518,1.26796 -1.267603,1.26796 z M 58.10017,51.46794 H 53.356711 V 45.76177 H 41.972125 v 5.70617 H 37.22831 c -0.982632,0 -1.778842,0.79621 -1.778842,1.77884 0,0.98263 0.79621,1.77884 1.778842,1.77884 h 6.522656 7.826904 6.5223 c 0.982633,0 1.778842,-0.79621 1.778842,-1.77884 0,-0.98263 -0.796565,-1.77884 -1.778842,-1.77884 z M 28.405967,6.7596 h -4.15324 c -0.259711,0 -0.512662,0.0263 -0.7617,0.0662 C 23.344806,6.787 23.194316,6.7596 23.035999,6.7596 H 5.3699672 c -0.9826321,0 -1.7788417,0.79621 -1.7788417,1.77884 0,0.98263 0.7962096,1.77884 1.7788417,1.77884 H 19.602124 c -0.110644,0.40487 -0.174683,0.82859 -0.174683,1.2676 v 3.31185 H 5.3699672 c -0.9826321,0 -1.7788417,0.79621 -1.7788417,1.77884 0,0.98263 0.7962096,1.77884 1.7788417,1.77884 H 19.427441 v 4.57981 H 5.3699672 c -0.9826321,0 -1.7788417,0.79621 -1.7788417,1.77884 0,0.98263 0.7962096,1.77884 1.7788417,1.77884 H 19.427441 v 14.34387 c 0,2.66079 2.164851,4.82564 4.825286,4.82564 h 4.15324 v 7.48501 c 0,0.98263 -0.79621,1.77884 -1.778842,1.77884 H 1.7788417 C 0.79620953,55.02526 0,54.22905 0,53.24642 V 1.77884 C 0,0.79621 0.79620953,0 1.7788417,0 H 26.627125 c 0.982632,0 1.778842,0.79621 1.778842,1.77884 z M 11.460721,41.88318 c 0,1.51451 1.227757,2.74226 2.742262,2.74226 1.514506,0 2.742263,-1.22775 2.742263,-2.74226 0,-1.5145 -1.227757,-2.74226 -2.742263,-2.74226 -1.514505,0 -2.742262,1.22776 -2.742262,2.74226 z"
     id="path2"
     inkscape:connector-curvature="0"
     style="stroke-width:0.35576832;fill:#a0522d;fill-opacity:1" /><g
     id="g4"
     transform="translate(0,-123.97938)" /><g
     id="g6"
     transform="translate(0,-123.97938)" /><g
     id="g8"
     transform="translate(0,-123.97938)" /><g
     id="g10"
     transform="translate(0,-123.97938)" /><g
     id="g12"
     transform="translate(0,-123.97938)" /><g
     id="g14"
     transform="translate(0,-123.97938)" /><g
     id="g16"
     transform="translate(0,-123.97938)" /><g
     id="g18"
     transform="translate(0,-123.97938)" /><g
     id="g20"
     transform="translate(0,-123.97938)" /><g
     id="g22"
     transform="translate(0,-123.97938)" /><g
     id="g24"
     transform="translate(0,-123.97938)" /><g
     id="g26"
     transform="translate(0,-123.97938)" /><g
     id="g28"
     transform="translate(0,-123.97938)" /><g
     id="g30"
     transform="translate(0,-123.97938)" /><g
     id="g32"
     transform="translate(0,-123.97938)" /></svg>