<svg width="99.99999999999999" height="99.99999999999999" xmlns="http://www.w3.org/2000/svg">

 <g>
  <title>background</title>
  <rect fill="none" id="canvas_background" height="402" width="582" y="-1" x="-1"/>
 </g>
 <g>
  <title>Layer 1</title>
  <path id="svg_5" fill="#5E5E5E" d="m46.559,76.544l-3.25,0l0,-4.771l11.408,0l0,-11.956c0,-2.482 2.02,-4.5 4.5,-4.5l4.609,0c-0.287,-0.16 -0.613,-0.258 -0.965,-0.258l-19.552,0l0,-3.156l19.553,0c1.105,0 2,-0.895 2,-2l0,-12.713c0,-1.105 -0.895,-2 -2,-2l-19.553,0l0,-3.156l19.715,0c1.105,0 2,-0.895 2,-2l0,-12.715c0,-1.104 -0.895,-2 -2,-2l-44.94,0c-1.105,0 -2,0.896 -2,2l0,12.715c0,1.105 0.895,2 2,2l19.391,0l0,3.156l-19.555,0c-1.104,0 -2,0.895 -2,2l0,12.713c0,1.105 0.896,2 2,2l19.555,0l0,3.156l-19.555,0c-1.104,0 -2,0.895 -2,2l0,12.713c0,1.105 0.896,2 2,2l19.555,0l0,4.771l-3.25,0c-1.656,0 -3,1.344 -3,3l0,1.916c0,1.656 1.344,3 3,3l12.334,0c1.656,0 3,-1.344 3,-3l0,-1.916c0,-1.655 -1.344,-2.999 -3,-2.999zm0.345,-17.627l1,0l0,9l-1,0l0,-9zm13.157,-21.521c1.225,0 2.219,0.992 2.219,2.219c0,1.225 -0.994,2.219 -2.219,2.219c-1.227,0 -2.219,-0.994 -2.219,-2.219c0,-1.227 0.992,-2.219 2.219,-2.219zm-3.881,0.984c0.682,0 1.234,0.553 1.234,1.234s-0.553,1.234 -1.234,1.234s-1.234,-0.553 -1.234,-1.234s0.552,-1.234 1.234,-1.234zm-9.276,0.668l1,0l0,9l-1,0l0,-9zm-26.129,-10.871l-1,0l0,-9l1,0l0,9zm4.166,0l-1,0l0,-9l1,0l0,9zm4.75,0l-1,0l0,-9l1,0l0,9zm4.625,0l-1,0l0,-9l1,0l0,9zm25.907,-10.651c1.225,0 2.219,0.992 2.219,2.219c0,1.225 -0.994,2.219 -2.219,2.219c-1.227,0 -2.219,-0.994 -2.219,-2.219c0,-1.226 0.992,-2.219 2.219,-2.219zm-3.881,0.985c0.682,0 1.234,0.553 1.234,1.234s-0.553,1.234 -1.234,1.234s-1.234,-0.553 -1.234,-1.234s0.552,-1.234 1.234,-1.234zm-9.276,0.666l1,0l0,9l-1,0l0,-9zm-4.75,0l1,0l0,9l-1,0l0,-9zm-21.705,28.871l-1,0l0,-9l1,0l0,9zm4.168,0l-1,0l0,-9l1,0l0,9zm4.75,0l-1,0l0,-9l1,0l0,9zm4.625,0l-1,0l0,-9l1,0l0,9zm-13.543,19.869l-1,0l0,-9l1,0l0,9zm4.168,0l-1,0l0,-9l1,0l0,9zm4.75,0l-1,0l0,-9l1,0l0,9zm4.625,0l-1,0l0,-9l1,0l0,9zm4.25,0l-1,0l0,-9l1,0l0,9zm0,-19.869l-1,0l0,-9l1,0l0,9zm0.162,-19.871l-1,0l0,-9l1,0l0,9zm4.588,39.74l-1,0l0,-9l1,0l0,9zm0,-19.869l-1,0l0,-9l1,0l0,9z"/>
  <path id="svg_6" fill="#5E5E5E" d="m29.896,77.749l-5.299,0l0,5.332l5.299,0c-0.217,-0.527 -0.34,-1.104 -0.34,-1.707l0,-1.916c0.001,-0.605 0.124,-1.182 0.34,-1.709z"/>
  <path id="svg_7" fill="#5E5E5E" d="m50.547,77.749c0.219,0.527 0.342,1.104 0.342,1.709l0,1.916c0,0.604 -0.123,1.18 -0.342,1.707l4.17,0l0,-5.332l-4.17,0z"/>
  <path id="svg_9" fill="#5E5E5E" d="m81.08,57.817l-20.863,0c-1.656,0 -3,1.342 -3,3l0,20.863c0,1.656 1.344,3 3,3l20.863,0c1.658,0 3,-1.344 3,-3l0,-20.863c0,-1.658 -1.342,-3 -3,-3zm-10.432,22.348c-4.916,0 -8.916,-4 -8.916,-8.916c0,-4.918 4,-8.918 8.916,-8.918c4.918,0 8.918,4 8.918,8.918c0,4.916 -4,8.916 -8.918,8.916z"/>
  <path id="svg_10" fill-rule="evenodd" fill="#5E5E5E" d="m76.613,73.073l-1.245,-1.061c-0.021,-0.02 -0.044,-0.033 -0.069,-0.049c0.037,-0.232 0.055,-0.473 0.055,-0.715c0,-0.244 -0.018,-0.482 -0.055,-0.715c0.026,-0.018 0.051,-0.033 0.075,-0.055l1.245,-1.059c0.169,-0.145 0.187,-0.451 0.047,-0.693l-0.822,-1.42c-0.14,-0.242 -0.414,-0.379 -0.624,-0.305l-1.543,0.547c-0.027,0.008 -0.054,0.021 -0.08,0.035c-0.371,-0.299 -0.792,-0.543 -1.243,-0.719c-0.001,-0.029 -0.003,-0.057 -0.009,-0.084l-0.297,-1.607c-0.041,-0.219 -0.299,-0.387 -0.579,-0.387l-1.642,0c-0.281,0 -0.539,0.168 -0.579,0.387l-0.297,1.607c-0.005,0.025 -0.007,0.051 -0.008,0.076c-0.458,0.176 -0.881,0.422 -1.256,0.723c-0.023,-0.012 -0.047,-0.023 -0.075,-0.031l-1.541,-0.549c-0.21,-0.074 -0.484,0.063 -0.623,0.303l-0.815,1.41c-0.14,0.238 -0.122,0.545 0.048,0.689l1.246,1.059c0.019,0.014 0.039,0.029 0.059,0.041c-0.04,0.242 -0.06,0.492 -0.06,0.746c0,0.248 0.02,0.49 0.057,0.727c-0.021,0.014 -0.039,0.027 -0.057,0.043l-1.247,1.059c-0.17,0.145 -0.188,0.449 -0.049,0.689l0.815,1.41c0.14,0.24 0.413,0.379 0.623,0.303l1.54,-0.549c0.024,-0.008 0.043,-0.018 0.065,-0.025c0.378,0.307 0.809,0.557 1.272,0.734c0.001,0.025 0.004,0.051 0.009,0.076l0.295,1.605c0.04,0.221 0.296,0.387 0.574,0.387l1.632,0c0.277,0 0.534,-0.166 0.572,-0.387l0.297,-1.605c0.004,-0.025 0.006,-0.051 0.01,-0.076c0.458,-0.176 0.885,-0.424 1.263,-0.727c0.022,0.012 0.047,0.023 0.073,0.031l1.542,0.547c0.21,0.074 0.485,-0.063 0.624,-0.305l0.823,-1.42c0.141,-0.24 0.124,-0.546 -0.046,-0.691zm-6.035,0.496c-1.318,0 -2.387,-1.066 -2.387,-2.383s1.069,-2.385 2.387,-2.385c1.319,0 2.39,1.068 2.39,2.385s-1.071,2.383 -2.39,2.383z" clip-rule="evenodd"/>
  <circle id="svg_12" r="1.316" fill-rule="evenodd" fill="#5E5E5E" cy="71.249" cx="70.64" clip-rule="evenodd"/>
 </g>
</svg>