<svg width="100" height="100" xmlns="http://www.w3.org/2000/svg">

 <g>
  <title>background</title>
  <rect fill="none" id="canvas_background" height="402" width="582" y="-1" x="-1"/>
 </g>
 <g>
  <title>Layer 1</title>
  <path id="svg_5" fill="#7f7f7f" d="m46.559,76.544l-3.25,0l0,-4.771l11.408,0l0,-11.956c0,-2.482 2.02,-4.5 4.5,-4.5l4.609,0c-0.287,-0.16 -0.613,-0.258 -0.965,-0.258l-19.552,0l0,-3.156l19.553,0c1.105,0 2,-0.895 2,-2l0,-12.713c0,-1.105 -0.895,-2 -2,-2l-19.553,0l0,-3.156l19.715,0c1.105,0 2,-0.895 2,-2l0,-12.715c0,-1.104 -0.895,-2 -2,-2l-44.94,0c-1.105,0 -2,0.896 -2,2l0,12.715c0,1.105 0.895,2 2,2l19.391,0l0,3.156l-19.555,0c-1.104,0 -2,0.895 -2,2l0,12.713c0,1.105 0.896,2 2,2l19.555,0l0,3.156l-19.555,0c-1.104,0 -2,0.895 -2,2l0,12.713c0,1.105 0.896,2 2,2l19.555,0l0,4.771l-3.25,0c-1.656,0 -3,1.344 -3,3l0,1.916c0,1.656 1.344,3 3,3l12.334,0c1.656,0 3,-1.344 3,-3l0,-1.916c0,-1.655 -1.344,-2.999 -3,-2.999zm0.345,-17.627l1,0l0,9l-1,0l0,-9zm13.157,-21.521c1.225,0 2.219,0.992 2.219,2.219c0,1.225 -0.994,2.219 -2.219,2.219c-1.227,0 -2.219,-0.994 -2.219,-2.219c0,-1.227 0.992,-2.219 2.219,-2.219zm-3.881,0.984c0.682,0 1.234,0.553 1.234,1.234s-0.553,1.234 -1.234,1.234s-1.234,-0.553 -1.234,-1.234s0.552,-1.234 1.234,-1.234zm-9.276,0.668l1,0l0,9l-1,0l0,-9zm-26.129,-10.871l-1,0l0,-9l1,0l0,9zm4.166,0l-1,0l0,-9l1,0l0,9zm4.75,0l-1,0l0,-9l1,0l0,9zm4.625,0l-1,0l0,-9l1,0l0,9zm25.907,-10.651c1.225,0 2.219,0.992 2.219,2.219c0,1.225 -0.994,2.219 -2.219,2.219c-1.227,0 -2.219,-0.994 -2.219,-2.219c0,-1.226 0.992,-2.219 2.219,-2.219zm-3.881,0.985c0.682,0 1.234,0.553 1.234,1.234s-0.553,1.234 -1.234,1.234s-1.234,-0.553 -1.234,-1.234s0.552,-1.234 1.234,-1.234zm-9.276,0.666l1,0l0,9l-1,0l0,-9zm-4.75,0l1,0l0,9l-1,0l0,-9zm-21.705,28.871l-1,0l0,-9l1,0l0,9zm4.168,0l-1,0l0,-9l1,0l0,9zm4.75,0l-1,0l0,-9l1,0l0,9zm4.625,0l-1,0l0,-9l1,0l0,9zm-13.543,19.869l-1,0l0,-9l1,0l0,9zm4.168,0l-1,0l0,-9l1,0l0,9zm4.75,0l-1,0l0,-9l1,0l0,9zm4.625,0l-1,0l0,-9l1,0l0,9zm4.25,0l-1,0l0,-9l1,0l0,9zm0,-19.869l-1,0l0,-9l1,0l0,9zm0.162,-19.871l-1,0l0,-9l1,0l0,9zm4.588,39.74l-1,0l0,-9l1,0l0,9zm0,-19.869l-1,0l0,-9l1,0l0,9z"/>
  <path id="svg_6" fill="#7f7f7f" d="m29.896,77.749l-5.299,0l0,5.332l5.299,0c-0.217,-0.527 -0.34,-1.104 -0.34,-1.707l0,-1.916c0.001,-0.605 0.124,-1.182 0.34,-1.709z"/>
  <path id="svg_7" fill="#7f7f7f" d="m50.547,77.749c0.219,0.527 0.342,1.104 0.342,1.709l0,1.916c0,0.604 -0.123,1.18 -0.342,1.707l4.17,0l0,-5.332l-4.17,0z"/>
  <path id="svg_9" fill="#7f7f7f" d="m81.08,57.817l-20.863,0c-1.656,0 -3,1.342 -3,3l0,20.863c0,1.656 1.344,3 3,3l20.863,0c1.658,0 3,-1.344 3,-3l0,-20.863c0,-1.658 -1.342,-3 -3,-3zm-10.432,22.348c-4.916,0 -8.916,-4 -8.916,-8.916c0,-4.918 4,-8.918 8.916,-8.918c4.918,0 8.918,4 8.918,8.918c0,4.916 -4,8.916 -8.918,8.916z"/>
  <ellipse id="svg_10" ry="2.436" rx="2.169" fill="#7f7f7f" cy="67.575" cx="70.649"/>
  <path id="svg_11" fill="#7f7f7f" d="m71.875,70.257l-1.196,2.393l0,0.115l-0.029,-0.057l-0.029,0.057l0,-0.115l-1.196,-2.393c-2.274,0.521 -3.97,2.555 -3.97,4.986c0,0.279 0.023,0.553 0.066,0.818l10.259,0c0.043,-0.266 0.066,-0.539 0.066,-0.818c-0.001,-2.431 -1.698,-4.465 -3.971,-4.986z"/>
 </g>
</svg>